<svg width="18" height="19" viewBox="0 0 18 19" fill="none" xmlns="http://www.w3.org/2000/svg">
<path fill-rule="evenodd" clip-rule="evenodd" d="M2.00003 0C1.10766 0 0.548006 0.341281 0.254435 0.850139C-0.000768345 1.29249 -0.000214558 1.78106 1.46217e-05 1.98331L2.74963e-05 2V2.00242V2.00498V2.00769V2.01054V2.01353V2.01667V2.01995V2.02338V2.02694V2.03065V2.0345V2.03849V2.04262V2.04689V2.0513V2.05585V2.06054V2.06537V2.07033V2.07544V2.08067V2.08605V2.09156V2.09721V2.10299V2.10891V2.11496V2.12115V2.12746V2.13392V2.1405V2.14722V2.15407V2.16104V2.16816V2.1754V2.18277V2.19027V2.1979V2.20565V2.21354V2.22155V2.2297V2.23796V2.24636V2.25488V2.26353V2.2723V2.28119V2.29021V2.29936V2.30862V2.31801V2.32753V2.33716V2.34692V2.3568V2.36679V2.37691V2.38715V2.39751V2.40799V2.41858V2.4293V2.44013V2.45108V2.46214V2.47332V2.48462V2.49604V2.50756V2.51921V2.53096V2.54283V2.55482V2.56692V2.57913V2.59145V2.60388V2.61642V2.62908V2.64184V2.65472V2.6677V2.6808V2.694V2.70731V2.72073V2.73425V2.74788V2.76162V2.77546V2.78941V2.80346V2.81762V2.83188V2.84625V2.86072V2.87529V2.88997V2.90474V2.91962V2.9346V2.94968V2.96486V2.98014V2.99552V3.01099V3.02657V3.04224V3.05801V3.07388V3.08985V3.10591V3.12207V3.13832V3.15467V3.17111V3.18764V3.20427V3.221V3.23781V3.25472V3.27172V3.28881V3.30599V3.32326V3.34063V3.35808V3.37562V3.39325V3.41097V3.42877V3.44667V3.46465V3.48271V3.50087V3.51911V3.53743V3.55584V3.57433V3.59291V3.61157V3.63032V3.64914V3.66805V3.68704V3.70611V3.72527V3.7445V3.76381V3.78321V3.80268V3.82223V3.84186V3.86157V3.88135V3.90121V3.92115V3.94116V3.96125V3.98142V4.00166V4.02197V4.04236V4.06282V4.08335V4.10396V4.12464V4.14539V4.16621V4.1871V4.20806V4.2291V4.2502V4.27137V4.29261V4.31392V4.33529V4.35673V4.37824V4.39982V4.42146V4.44317V4.46494V4.48678V4.50868V4.53065V4.55268V4.57477V4.59692V4.61914V4.64142V4.66376V4.68616V4.70862V4.73114V4.75372V4.77636V4.79905V4.82181V4.84462V4.86749V4.89042V4.9134V4.93644V4.95953V4.98268V5.00589V5.02915V5.05246V5.07582V5.09924V5.12271V5.14624V5.16981V5.19343V5.21711V5.24084V5.26461V5.28844V5.31231V5.33623V5.36021V5.38422V5.40829V5.4324V5.45656V5.48076V5.50501V5.52931V5.55365V5.57803V5.60246V5.62693V5.65144V5.67599V5.70059V5.72523V5.74991V5.77463V5.79939V5.82419V5.84903V5.87391V5.89882V5.92378V5.94877V5.9738V5.99886V6.02396V6.0491V6.07427V6.09948V6.12472V6.15V6.17531V6.20065V6.22603V6.25144V6.27688V6.30235V6.32785V6.35338V6.37894V6.40454V6.43016V6.45581V6.48148V6.50719V6.53292V6.55869V6.58447V6.61029V6.63613V6.66199V6.68788V6.71379V6.73973V6.76569V6.79167V6.81768V6.84371V6.86976V6.89583V6.92192V6.94804V6.97417V7.00032V7.02649V7.05268V7.07889V7.10512V7.13136V7.15762V7.1839V7.21019V7.2365V7.26283V7.28917V7.31552V7.34189V7.36827V7.39466V7.42107V7.44748V7.47391V7.50035V7.5268V7.55327V7.57974V7.60622V7.63271V7.65921V7.68572V7.71223V7.73875V7.76528V7.79182V7.81836V7.84491V7.87146V7.89802V7.92458V7.95114V7.97771V8.00428V8.03085V8.05743V8.08401V8.11058V8.13716V8.16374V8.19032V8.2169V8.24347V8.27005V8.29663V8.3232V8.34977V8.37633V8.40289V8.42945V8.456V8.48255V8.50909V8.53563V8.56216V8.58869V8.6152V8.64171V8.66821V8.69471V8.72119V8.74766V8.77413V8.80058V8.82703V8.85346V8.87988V8.90629V8.93268V8.95907V8.98544V9.0118V9.03814V9.06446V9.09078V9.11707V9.14336V9.16962V9.19587V9.2221V9.24831V9.27451V9.30068V9.32684V9.35298V9.3791V9.4052V9.43127V9.45733V9.48336V9.50937V9.53537V9.56133V9.58727V9.61319V9.63909V9.66496V9.69081V9.71663V9.74242V9.76819V9.79393V9.81964V9.84533V9.87098V9.89661V9.92221V9.94778V9.97332V9.99883V10.0243V10.0498V10.0752V10.1006V10.1259V10.1512V10.1765V10.2018V10.227V10.2522V10.2773V10.3024V10.3275V10.3525V10.3775V10.4025V10.4274V10.4523V10.4772V10.502V10.5267V10.5515V10.5762V10.6008V10.6254V10.65V10.6745V10.699V10.7234V10.7478V10.7722V10.7965V10.8207V10.8449V10.8691V10.8932V10.9173V10.9413V10.9653V10.9893V11.0132V11.037V11.0608V11.0845V11.1082V11.1318V11.1554V11.179V11.2024V11.2259V11.2493V11.2726V11.2959V11.3191V11.3422V11.3653V11.3884V11.4114V11.4343V11.4572V11.48V11.5028V11.5255V11.5482V11.5708V11.5933V11.6158V11.6382V11.6606V11.6828V11.7051V11.7273V11.7494V11.7714V11.7934V11.8153V11.8372V11.8589V11.8807V11.9023V11.9239V11.9454V11.9669V11.9883V12.0096V12.0309V12.0521V12.0732V12.0942V12.1152V12.1361V12.157V12.1777V12.1984V12.2191V12.2396V12.2601V12.2805V12.3008V12.3211V12.3413V12.3614V12.3814V12.4014V12.4213V12.4411V12.4608V12.4804V12.5C2.74963e-05 12.5776 0.0181 12.6542 0.0528139 12.7236C0.333164 13.2843 0.65851 13.6519 1.12683 13.8392C1.53036 14.0006 1.99238 14.0003 2.44147 14L2.50003 14H2.52159H2.54304H2.56438H2.58561H2.60673H2.62774H2.64865H2.66944H2.69012H2.71069H2.73116H2.75152H2.77177H2.79191H2.81194H2.83187H2.85169H2.87141H2.89102H2.91053H2.92993H2.94923H2.96842H2.98751H3.00649H3.02537H3.04415H3.06283H3.0814H3.09987H3.11824H3.13651H3.15468H3.17275H3.19072H3.20858H3.22635H3.24402H3.26159H3.27906H3.29644H3.31371H3.33089H3.34797H3.36496H3.38185H3.39864H3.41533H3.43193H3.44844H3.46485H3.48117H3.49739H3.51352H3.52955H3.5455H3.56135H3.5771H3.59277H3.60834H3.62382H3.63921H3.65451H3.66972H3.68484H3.69987H3.71481H3.72967H3.74443H3.7591H3.77369H3.78819H3.8026H3.81693H3.83116H3.84532H3.85938H3.87336H3.88726H3.90107H3.91479H3.92843H3.94199H3.95546H3.96885H3.98216H3.99539H4.00853H4.02159H4.03457H4.04747H4.06028H4.07302H4.08568H4.09825H4.11075H4.12317H4.13551H4.14777H4.15995H4.17205H4.18408H4.19603H4.2079H4.2197H4.23142H4.24306H4.25463H4.26612H4.27754H4.28889H4.30016H4.31135H4.32248H4.33353H4.3445H4.35541H4.36624H4.377H4.38769H4.39831H4.40886H4.41934H4.42974H4.44008H4.45035H4.46055H4.47068H4.48074H4.49073H4.50066H4.51052H4.52031H4.53004H4.53969H4.54929H4.55882H4.56828H4.57767H4.58701H4.59627H4.60548H4.61462H4.6237H4.63271H4.64166H4.65055H4.65938H4.66814H4.67685H4.68549H4.69407H4.7026H4.71106H4.71946H4.72781H4.73609H4.74432H4.75249H4.7606H4.76865H4.77664H4.78458H4.79247H4.80029H4.80806H4.81578H4.82343H4.83104H4.83859H4.84609H4.85353H4.86092H4.86825H4.87554H4.88276H4.88994H4.89707H4.90414H4.91117H4.91814H4.92506H4.93194H4.93876H4.94553H4.95226H4.95893H4.96556H4.97214H4.97867H4.98515H4.99159H4.99798H5.00432H5.01062H5.01687H5.02308H5.02924H5.03536H5.04143H5.04746H5.05344H5.05939H5.06528H5.07114H5.07695H5.08273H5.08846H5.09414H5.09979H5.1054H5.11097H5.11649H5.12198H5.12743H5.13284H5.13821H5.14354H5.14884H5.15409H5.15931H5.16449H5.16964H5.17475H5.17982H5.18486H5.18987H5.19483H5.19977H5.20467H5.20953H5.21436H5.21916H5.22393H5.22866H5.23337H5.23803H5.24267H5.24728H5.25186H5.2564H5.26092H5.2654H5.26986H5.27429H5.27868H5.28306H5.2874H5.29171H5.296H5.30026H5.30449H5.3087H5.31288H5.31703H5.32116H5.32527H5.32934H5.3334H5.33743H5.34144H5.34542H5.34938H5.35332H5.35724H5.36113H5.365H5.36885H5.37268H5.37649H5.38028H5.38405H5.3878H5.39153H5.39524H5.39893H5.40261H5.40626H5.4099H5.41352H5.41713H5.42072H5.42429H5.42784H5.43138H5.43491H5.43842H5.44191H5.44539H5.44886H5.45231H5.45575H5.45918H5.4626H5.466H5.46939H5.47277H5.47614H5.47949H5.48284H5.48618H5.4895H5.49282H5.49613H5.49943H5.50272H5.506H5.50928H5.51254H5.51581H5.51906H5.52231H5.52555H5.52878H5.53201H5.53524H5.53846H5.54167H5.54488H5.54809H5.55129H5.5545H5.55769H5.56089H5.56408H5.56728H5.57047H5.57366H5.57685H5.58004H5.58322H5.58641H5.5896H5.59279H5.59599H5.59918H5.60238H5.60557H5.60877H5.61198H5.61518H5.6184H5.62161H5.62483H5.62805H5.63128H5.63452H5.63776H5.641H5.64426H5.64752H5.65078H5.65406H5.65734H5.66063H5.66393H5.66723H5.67055H5.67387H5.67721H5.68056H5.68391H5.68728H5.69066H5.69405H5.69745H5.70086H5.70429H5.70773H5.71118H5.71464H5.71812H5.72162H5.72512H5.72865H5.73218H5.73574H5.73931H5.74289H5.7465H5.75012H5.75375H5.75741H5.76108H5.76477H5.76848H5.7722H5.77595H5.77972H5.7835H5.78731H5.79114H5.79499H5.79886H5.80275H5.80666H5.8106H5.81456H5.81854H5.82254H5.82657H5.83062H5.8347H5.8388H5.84293H5.84708H5.85125H5.85546H5.85969H5.86394H5.86823H5.87254H5.87688H5.88124H5.88564H5.89006H5.89452H5.899H5.90351H5.90805H5.91262H5.91723H5.92186H5.92653H5.93122H5.93596H5.94072H5.94551H5.95034H5.9552H5.9601H5.96503H5.96999H5.97499H5.98002H5.98509H5.9902H5.99534H6.00052H6.00574H6.01099H6.01628H6.0216H6.02697H6.03238H6.03782H6.0433H6.04882H6.05439H6.05999H6.06563H6.07131H6.07704H6.08281H6.08861H6.09447H6.10036H6.1063H6.11228H6.1183H6.12437H6.13048H6.13663H6.14284H6.14908H6.15537H6.16171H6.1681H6.17453H6.18101H6.18753H6.19101L7.05281 15.7236L8.55049 18.7189C8.57308 18.7654 8.60293 18.8086 8.63941 18.8465C8.65379 18.8615 8.669 18.8755 8.68493 18.8884C8.71972 18.9166 8.75795 18.9398 8.79845 18.9576C8.86383 18.9864 8.9324 19.0002 9.00003 19.0001C9.06766 19.0002 9.13622 18.9864 9.20161 18.9576C9.2547 18.9342 9.30391 18.9016 9.34657 18.8606C9.35935 18.8483 9.3714 18.8354 9.38269 18.822C9.40931 18.7904 9.43171 18.7557 9.44957 18.7189L10.9472 15.7236L11.809 14H11.8125H11.819H11.8255H11.832H11.8383H11.8447H11.851H11.8572H11.8634H11.8696H11.8757H11.8818H11.8878H11.8938H11.8997H11.9056H11.9114H11.9172H11.923H11.9287H11.9344H11.9401H11.9457H11.9512H11.9568H11.9622H11.9677H11.9731H11.9784H11.9838H11.9891H11.9943H11.9995H12.0047H12.0099H12.015H12.02H12.0251H12.0301H12.035H12.04H12.0449H12.0497H12.0545H12.0593H12.0641H12.0688H12.0735H12.0782H12.0828H12.0874H12.092H12.0965H12.1011H12.1055H12.11H12.1144H12.1188H12.1232H12.1275H12.1318H12.1361H12.1404H12.1446H12.1488H12.153H12.1571H12.1613H12.1654H12.1694H12.1735H12.1775H12.1815H12.1855H12.1895H12.1934H12.1973H12.2012H12.2051H12.2089H12.2127H12.2165H12.2203H12.2241H12.2279H12.2316H12.2353H12.239H12.2426H12.2463H12.2499H12.2536H12.2572H12.2607H12.2643H12.2679H12.2714H12.2749H12.2784H12.2819H12.2854H12.2889H12.2923H12.2958H12.2992H12.3026H12.306H12.3094H12.3128H12.3161H12.3195H12.3228H12.3262H12.3295H12.3328H12.3361H12.3394H12.3427H12.346H12.3493H12.3525H12.3558H12.359H12.3623H12.3655H12.3688H12.372H12.3752H12.3784H12.3817H12.3849H12.3881H12.3913H12.3945H12.3977H12.4009H12.4041H12.4073H12.4105H12.4136H12.4168H12.42H12.4232H12.4264H12.4296H12.4328H12.436H12.4392H12.4424H12.4456H12.4488H12.452H12.4552H12.4584H12.4616H12.4648H12.468H12.4713H12.4745H12.4777H12.481H12.4842H12.4875H12.4908H12.4941H12.4973H12.5006H12.5039H12.5072H12.5105H12.5139H12.5172H12.5206H12.5239H12.5273H12.5307H12.5341H12.5375H12.5409H12.5443H12.5477H12.5512H12.5547H12.5581H12.5616H12.5651H12.5687H12.5722H12.5758H12.5793H12.5829H12.5865H12.5902H12.5938H12.5974H12.6011H12.6048H12.6085H12.6123H12.616H12.6198H12.6236H12.6274H12.6312H12.6351H12.6389H12.6428H12.6467H12.6507H12.6546H12.6586H12.6626H12.6667H12.6707H12.6748H12.6789H12.683H12.6872H12.6914H12.6956H12.6998H12.7041H12.7083H12.7127H12.717H12.7214H12.7258H12.7302H12.7347H12.7391H12.7437H12.7482H12.7528H12.7574H12.762H12.7667H12.7714H12.7761H12.7809H12.7857H12.7905H12.7954H12.8003H12.8052H12.8102H12.8152H12.8202H12.8253H12.8304H12.8356H12.8407H12.846H12.8512H12.8565H12.8618H12.8672H12.8726H12.8781H12.8836H12.8891H12.8947H12.9003H12.9059H12.9116H12.9173H12.9231H12.9289H12.9348H12.9407H12.9466H12.9526H12.9586H12.9647H12.9708H12.977H12.9832H12.9894H12.9957H13.0021H13.0085H13.0149H13.0214H13.0279H13.0345H13.0411H13.0478H13.0545H13.0613H13.0681H13.075H13.0819H13.0889H13.0959H13.103H13.1101H13.1173H13.1245H13.1318H13.1391H13.1465H13.154H13.1615H13.169H13.1766H13.1843H13.192H13.1998H13.2076H13.2155H13.2234H13.2314H13.2395H13.2476H13.2557H13.264H13.2722H13.2806H13.289H13.2975H13.306H13.3146H13.3232H13.3319H13.3407H13.3495H13.3584H13.3673H13.3764H13.3854H13.3946H13.4038H13.413H13.4224H13.4318H13.4412H13.4508H13.4604H13.47H13.4797H13.4895H13.4994H13.5093H13.5193H13.5294H13.5395H13.5497H13.56H13.5703H13.5807H13.5912H13.6017H13.6124H13.6231H13.6338H13.6446H13.6556H13.6665H13.6776H13.6887H13.6999H13.7112H13.7225H13.7339H13.7454H13.757H13.7686H13.7804H13.7922H13.804H13.816H13.828H13.8401H13.8523H13.8645H13.8769H13.8893H13.9018H13.9144H13.927H13.9398H13.9526H13.9655H13.9785H13.9915H14.0047H14.0179H14.0312H14.0446H14.0581H14.0716H14.0853H14.099H14.1128H14.1267H14.1407H14.1547H14.1689H14.1831H14.1975H14.2119H14.2264H14.241H14.2556H14.2704H14.2852H14.3002H14.3152H14.3303H14.3455H14.3608H14.3762H14.3917H14.4073H14.423H14.4387H14.4546H14.4705H14.4865H14.5027H14.5189H14.5352H14.5516H14.5681H14.5847H14.6014H14.6182H14.6351H14.6521H14.6692H14.6863H14.7036H14.721H14.7385H14.756H14.7737H14.7915H14.8093H14.8273H14.8454H14.8635H14.8818H14.9002H14.9187H14.9372H14.9559H14.9747H14.9936H15.0125H15.0316H15.0508H15.0701H15.0895H15.109H15.1286H15.1484H15.1682H15.1881H15.2081H15.2283H15.2485H15.2689H15.2894H15.3099H15.3306H15.3514H15.3723H15.3933H15.4144H15.4357H15.457H15.4785H15.5L15.5586 14C16.0077 14.0003 16.4697 14.0006 16.8732 13.8392C17.3415 13.6519 17.6669 13.2843 17.9472 12.7236C17.982 12.6542 18 12.5776 18 12.5V12.4804V12.4608V12.4411V12.4213V12.4014V12.3814V12.3614V12.3413V12.3211V12.3008V12.2805V12.2601V12.2396V12.2191V12.1984V12.1777V12.157V12.1361V12.1152V12.0942V12.0732V12.0521V12.0309V12.0096V11.9883V11.9669V11.9454V11.9239V11.9023V11.8807V11.8589V11.8372V11.8153V11.7934V11.7714V11.7494V11.7273V11.7051V11.6828V11.6606V11.6382V11.6158V11.5933V11.5708V11.5482V11.5255V11.5028V11.48V11.4572V11.4343V11.4114V11.3884V11.3653V11.3422V11.3191V11.2959V11.2726V11.2493V11.2259V11.2024V11.179V11.1554V11.1318V11.1082V11.0845V11.0608V11.037V11.0132V10.9893V10.9653V10.9413V10.9173V10.8932V10.8691V10.8449V10.8207V10.7965V10.7722V10.7478V10.7234V10.699V10.6745V10.65V10.6254V10.6008V10.5762V10.5515V10.5267V10.502V10.4772V10.4523V10.4274V10.4025V10.3775V10.3525V10.3275V10.3024V10.2773V10.2522V10.227V10.2018V10.1765V10.1512V10.1259V10.1006V10.0752V10.0498V10.0243V9.99883V9.97332V9.94778V9.92221V9.89661V9.87098V9.84533V9.81964V9.79393V9.76819V9.74242V9.71663V9.69081V9.66496V9.63909V9.61319V9.58727V9.56133V9.53537V9.50937V9.48336V9.45733V9.43127V9.4052V9.3791V9.35298V9.32684V9.30068V9.27451V9.24831V9.2221V9.19587V9.16962V9.14336V9.11707V9.09078V9.06446V9.03814V9.0118V8.98544V8.95907V8.93268V8.90629V8.87988V8.85346V8.82703V8.80058V8.77413V8.74766V8.72119V8.69471V8.66821V8.64171V8.6152V8.58869V8.56216V8.53563V8.50909V8.48255V8.456V8.42945V8.40289V8.37633V8.34977V8.3232V8.29663V8.27005V8.24347V8.2169V8.19032V8.16374V8.13716V8.11058V8.08401V8.05743V8.03085V8.00428V7.97771V7.95114V7.92458V7.89802V7.87146V7.84491V7.81836V7.79182V7.76528V7.73875V7.71223V7.68572V7.65921V7.63271V7.60622V7.57974V7.55327V7.5268V7.50035V7.47391V7.44748V7.42107V7.39466V7.36827V7.34189V7.31552V7.28917V7.26283V7.2365V7.21019V7.1839V7.15762V7.13136V7.10512V7.07889V7.05268V7.02649V7.00032V6.97417V6.94804V6.92192V6.89583V6.86976V6.84371V6.81768V6.79167V6.76569V6.73973V6.71379V6.68788V6.66199V6.63613V6.61029V6.58447V6.55869V6.53292V6.50719V6.48148V6.45581V6.43016V6.40454V6.37894V6.35338V6.32785V6.30235V6.27688V6.25144V6.22603V6.20065V6.17531V6.15V6.12472V6.09948V6.07427V6.0491V6.02396V5.99886V5.9738V5.94877V5.92378V5.89882V5.87391V5.84903V5.82419V5.79939V5.77463V5.74991V5.72523V5.70059V5.67599V5.65144V5.62693V5.60246V5.57803V5.55365V5.52931V5.50501V5.48076V5.45656V5.4324V5.40829V5.38422V5.36021V5.33623V5.31231V5.28844V5.26461V5.24084V5.21711V5.19343V5.16981V5.14624V5.12271V5.09924V5.07582V5.05246V5.02915V5.00589V4.98268V4.95953V4.93644V4.9134V4.89042V4.86749V4.84462V4.82181V4.79905V4.77636V4.75372V4.73114V4.70862V4.68616V4.66376V4.64142V4.61914V4.59692V4.57477V4.55268V4.53065V4.50868V4.48678V4.46494V4.44317V4.42146V4.39982V4.37824V4.35673V4.33529V4.31392V4.29261V4.27137V4.2502V4.2291V4.20806V4.1871V4.16621V4.14539V4.12464V4.10396V4.08335V4.06282V4.04236V4.02197V4.00166V3.98142V3.96125V3.94116V3.92115V3.90121V3.88135V3.86157V3.84186V3.82223V3.80268V3.78321V3.76381V3.7445V3.72527V3.70611V3.68704V3.66805V3.64914V3.63032V3.61157V3.59291V3.57433V3.55584V3.53743V3.51911V3.50087V3.48271V3.46465V3.44667V3.42877V3.41097V3.39325V3.37562V3.35808V3.34063V3.32326V3.30599V3.28881V3.27172V3.25472V3.23781V3.221V3.20427V3.18764V3.17111V3.15467V3.13832V3.12207V3.10591V3.08985V3.07388V3.05801V3.04224V3.02657V3.01099V2.99552V2.98014V2.96486V2.94968V2.9346V2.91962V2.90474V2.88997V2.87529V2.86072V2.84625V2.83188V2.81762V2.80346V2.78941V2.77546V2.76162V2.74788V2.73425V2.72073V2.70731V2.694V2.6808V2.6677V2.65472V2.64184V2.62908V2.61642V2.60388V2.59145V2.57913V2.56692V2.55482V2.54283V2.53096V2.51921V2.50756V2.49604V2.48462V2.47332V2.46214V2.45108V2.44013V2.4293V2.41858V2.40799V2.39751V2.38715V2.37691V2.36679V2.3568V2.34692V2.33716V2.32753V2.31801V2.30862V2.29936V2.29021V2.28119V2.2723V2.26353V2.25488V2.24636V2.23796V2.2297V2.22155V2.21354V2.20565V2.1979V2.19027V2.18277V2.1754V2.16816V2.16104V2.15407V2.14722V2.1405V2.13392V2.12746V2.12115V2.11496V2.10891V2.10299V2.09721V2.09156V2.08605V2.08067V2.07544V2.07033V2.06537V2.06054V2.05585V2.0513V2.04689V2.04262V2.03849V2.0345V2.03065V2.02694V2.02338V2.01995V2.01667V2.01353V2.01054V2.00769V2.00498V2.00242V2L18 1.98331C18.0003 1.78106 18.0008 1.29249 17.7456 0.850139C17.452 0.341281 16.8924 0 16 0H9.00003H2.00003ZM9.00003 1H2.00003C1.3924 1 1.20205 1.20872 1.12062 1.34986C1.00814 1.54482 1.00003 1.79088 1.00003 2V2.00242V2.00498V2.00769V2.01054V2.01353V2.01667V2.01995V2.02338V2.02694V2.03065V2.0345V2.03849V2.04262V2.04689V2.0513V2.05585V2.06054V2.06537V2.07033V2.07544V2.08067V2.08605V2.09156V2.09721V2.10299V2.10891V2.11496V2.12115V2.12746V2.13392V2.1405V2.14722V2.15407V2.16104V2.16816V2.1754V2.18277V2.19027V2.1979V2.20565V2.21354V2.22155V2.2297V2.23796V2.24636V2.25488V2.26353V2.2723V2.28119V2.29021V2.29936V2.30862V2.31801V2.32753V2.33716V2.34692V2.3568V2.36679V2.37691V2.38715V2.39751V2.40799V2.41858V2.4293V2.44013V2.45108V2.46214V2.47332V2.48462V2.49604V2.50756V2.51921V2.53096V2.54283V2.55482V2.56692V2.57913V2.59145V2.60388V2.61642V2.62908V2.64184V2.65472V2.6677V2.6808V2.694V2.70731V2.72073V2.73425V2.74788V2.76162V2.77546V2.78941V2.80346V2.81762V2.83188V2.84625V2.86072V2.87529V2.88997V2.90474V2.91962V2.9346V2.94968V2.96486V2.98014V2.99552V3.01099V3.02657V3.04224V3.05801V3.07388V3.08985V3.10591V3.12207V3.13832V3.15467V3.17111V3.18764V3.20427V3.221V3.23781V3.25472V3.27172V3.28881V3.30599V3.32326V3.34063V3.35808V3.37562V3.39325V3.41097V3.42877V3.44667V3.46465V3.48271V3.50087V3.51911V3.53743V3.55584V3.57433V3.59291V3.61157V3.63032V3.64914V3.66805V3.68704V3.70611V3.72527V3.7445V3.76381V3.78321V3.80268V3.82223V3.84186V3.86157V3.88135V3.90121V3.92115V3.94116V3.96125V3.98142V4.00166V4.02197V4.04236V4.06282V4.08335V4.10396V4.12464V4.14539V4.16621V4.1871V4.20806V4.2291V4.2502V4.27137V4.29261V4.31392V4.33529V4.35673V4.37824V4.39982V4.42146V4.44317V4.46494V4.48678V4.50868V4.53065V4.55268V4.57477V4.59692V4.61914V4.64142V4.66376V4.68616V4.70862V4.73114V4.75372V4.77636V4.79905V4.82181V4.84462V4.86749V4.89042V4.9134V4.93644V4.95953V4.98268V5.00589V5.02915V5.05246V5.07582V5.09924V5.12271V5.14624V5.16981V5.19343V5.21711V5.24084V5.26461V5.28844V5.31231V5.33623V5.36021V5.38422V5.40829V5.4324V5.45656V5.48076V5.50501V5.52931V5.55365V5.57803V5.60246V5.62693V5.65144V5.67599V5.70059V5.72523V5.74991V5.77463V5.79939V5.82419V5.84903V5.87391V5.89882V5.92378V5.94877V5.9738V5.99886V6.02396V6.0491V6.07427V6.09948V6.12472V6.15V6.17531V6.20065V6.22603V6.25144V6.27688V6.30235V6.32785V6.35338V6.37894V6.40454V6.43016V6.45581V6.48148V6.50719V6.53292V6.55869V6.58447V6.61029V6.63613V6.66199V6.68788V6.71379V6.73973V6.76569V6.79167V6.81768V6.84371V6.86976V6.89583V6.92192V6.94804V6.97417V7.00032V7.02649V7.05268V7.07889V7.10512V7.13136V7.15762V7.1839V7.21019V7.2365V7.26283V7.28917V7.31552V7.34189V7.36827V7.39466V7.42107V7.44748V7.47391V7.50035V7.5268V7.55327V7.57974V7.60622V7.63271V7.65921V7.68572V7.71223V7.73875V7.76528V7.79182V7.81836V7.84491V7.87146V7.89802V7.92458V7.95114V7.97771V8.00428V8.03085V8.05743V8.08401V8.11058V8.13716V8.16374V8.19032V8.2169V8.24347V8.27005V8.29663V8.3232V8.34977V8.37633V8.40289V8.42945V8.456V8.48255V8.50909V8.53563V8.56216V8.58869V8.6152V8.64171V8.66821V8.69471V8.72119V8.74766V8.77413V8.80058V8.82703V8.85346V8.87988V8.90629V8.93268V8.95907V8.98544V9.0118V9.03814V9.06446V9.09078V9.11707V9.14336V9.16962V9.19587V9.2221V9.24831V9.27451V9.30068V9.32684V9.35298V9.3791V9.4052V9.43127V9.45733V9.48336V9.50937V9.53537V9.56133V9.58727V9.61319V9.63909V9.66496V9.69081V9.71663V9.74242V9.76819V9.79393V9.81964V9.84533V9.87098V9.89661V9.92221V9.94778V9.97332V9.99883V10.0243V10.0498V10.0752V10.1006V10.1259V10.1512V10.1765V10.2018V10.227V10.2522V10.2773V10.3024V10.3275V10.3525V10.3775V10.4025V10.4274V10.4523V10.4772V10.502V10.5267V10.5515V10.5762V10.6008V10.6254V10.65V10.6745V10.699V10.7234V10.7478V10.7722V10.7965V10.8207V10.8449V10.8691V10.8932V10.9173V10.9413V10.9653V10.9893V11.0132V11.037V11.0608V11.0845V11.1082V11.1318V11.1554V11.179V11.2024V11.2259V11.2493V11.2726V11.2959V11.3191V11.3422V11.3653V11.3884V11.4114V11.4343V11.4572V11.48V11.5028V11.5255V11.5482V11.5708V11.5933V11.6158V11.6382V11.6606V11.6828V11.7051V11.7273V11.7494V11.7714V11.7934V11.8153V11.8372V11.8589V11.8807V11.9023V11.9239V11.9454V11.9669V11.9883V12.0096V12.0309V12.0521V12.0732V12.0942V12.1152V12.1361V12.157V12.1777V12.1984V12.2191V12.2396V12.2601V12.2805V12.3008V12.3211V12.3413V12.3614V12.3777C1.19522 12.7368 1.35431 12.8532 1.49822 12.9108C1.70213 12.9923 1.96735 13 2.50003 13H2.52159H2.54304H2.56438H2.58561H2.60673H2.62774H2.64865H2.66944H2.69012H2.71069H2.73116H2.75152H2.77177H2.79191H2.81194H2.83187H2.85169H2.87141H2.89102H2.91053H2.92993H2.94923H2.96842H2.98751H3.00649H3.02537H3.04415H3.06283H3.0814H3.09987H3.11824H3.13651H3.15468H3.17275H3.19072H3.20858H3.22635H3.24402H3.26159H3.27906H3.29644H3.31371H3.33089H3.34797H3.36496H3.38185H3.39864H3.41533H3.43193H3.44844H3.46485H3.48117H3.49739H3.51352H3.52955H3.5455H3.56135H3.5771H3.59277H3.60834H3.62382H3.63921H3.65451H3.66972H3.68484H3.69987H3.71481H3.72967H3.74443H3.7591H3.77369H3.78819H3.8026H3.81693H3.83116H3.84532H3.85938H3.87336H3.88726H3.90107H3.91479H3.92843H3.94199H3.95546H3.96885H3.98216H3.99539H4.00853H4.02159H4.03457H4.04747H4.06028H4.07302H4.08568H4.09825H4.11075H4.12317H4.13551H4.14777H4.15995H4.17205H4.18408H4.19603H4.2079H4.2197H4.23142H4.24306H4.25463H4.26612H4.27754H4.28889H4.30016H4.31135H4.32248H4.33353H4.3445H4.35541H4.36624H4.377H4.38769H4.39831H4.40886H4.41934H4.42974H4.44008H4.45035H4.46055H4.47068H4.48074H4.49073H4.50066H4.51052H4.52031H4.53004H4.53969H4.54929H4.55882H4.56828H4.57767H4.58701H4.59627H4.60548H4.61462H4.6237H4.63271H4.64166H4.65055H4.65938H4.66814H4.67685H4.68549H4.69407H4.7026H4.71106H4.71946H4.72781H4.73609H4.74432H4.75249H4.7606H4.76865H4.77664H4.78458H4.79247H4.80029H4.80806H4.81578H4.82343H4.83104H4.83859H4.84609H4.85353H4.86092H4.86825H4.87554H4.88276H4.88994H4.89707H4.90414H4.91117H4.91814H4.92506H4.93194H4.93876H4.94553H4.95226H4.95893H4.96556H4.97214H4.97867H4.98515H4.99159H4.99798H5.00432H5.01062H5.01687H5.02308H5.02924H5.03536H5.04143H5.04746H5.05344H5.05939H5.06528H5.07114H5.07695H5.08273H5.08846H5.09414H5.09979H5.1054H5.11097H5.11649H5.12198H5.12743H5.13284H5.13821H5.14354H5.14884H5.15409H5.15931H5.16449H5.16964H5.17475H5.17982H5.18486H5.18987H5.19483H5.19977H5.20467H5.20953H5.21436H5.21916H5.22393H5.22866H5.23337H5.23803H5.24267H5.24728H5.25186H5.2564H5.26092H5.2654H5.26986H5.27429H5.27868H5.28306H5.2874H5.29171H5.296H5.30026H5.30449H5.3087H5.31288H5.31703H5.32116H5.32527H5.32934H5.3334H5.33743H5.34144H5.34542H5.34938H5.35332H5.35724H5.36113H5.365H5.36885H5.37268H5.37649H5.38028H5.38405H5.3878H5.39153H5.39524H5.39893H5.40261H5.40626H5.4099H5.41352H5.41713H5.42072H5.42429H5.42784H5.43138H5.43491H5.43842H5.44191H5.44539H5.44886H5.45231H5.45575H5.45918H5.4626H5.466H5.46939H5.47277H5.47614H5.47949H5.48284H5.48618H5.4895H5.49282H5.49613H5.49943H5.50272H5.506H5.50928H5.51254H5.51581H5.51906H5.52231H5.52555H5.52878H5.53201H5.53524H5.53846H5.54167H5.54488H5.54809H5.55129H5.5545H5.55769H5.56089H5.56408H5.56728H5.57047H5.57366H5.57685H5.58004H5.58322H5.58641H5.5896H5.59279H5.59599H5.59918H5.60238H5.60557H5.60877H5.61198H5.61518H5.6184H5.62161H5.62483H5.62805H5.63128H5.63452H5.63776H5.641H5.64426H5.64752H5.65078H5.65406H5.65734H5.66063H5.66393H5.66723H5.67055H5.67387H5.67721H5.68056H5.68391H5.68728H5.69066H5.69405H5.69745H5.70086H5.70429H5.70773H5.71118H5.71464H5.71812H5.72162H5.72512H5.72865H5.73218H5.73574H5.73931H5.74289H5.7465H5.75012H5.75375H5.75741H5.76108H5.76477H5.76848H5.7722H5.77595H5.77972H5.7835H5.78731H5.79114H5.79499H5.79886H5.80275H5.80666H5.8106H5.81456H5.81854H5.82254H5.82657H5.83062H5.8347H5.8388H5.84293H5.84708H5.85125H5.85546H5.85969H5.86394H5.86823H5.87254H5.87688H5.88124H5.88564H5.89006H5.89452H5.899H5.90351H5.90805H5.91262H5.91723H5.92186H5.92653H5.93122H5.93596H5.94072H5.94551H5.95034H5.9552H5.9601H5.96503H5.96999H5.97499H5.98002H5.98509H5.9902H5.99534H6.00052H6.00574H6.01099H6.01628H6.0216H6.02697H6.03238H6.03782H6.0433H6.04882H6.05439H6.05999H6.06563H6.07131H6.07704H6.08281H6.08861H6.09447H6.10036H6.1063H6.11228H6.1183H6.12437H6.13048H6.13663H6.14284H6.14908H6.15537H6.16171H6.1681H6.17453H6.18101H6.18753H6.19411H6.20073H6.2074H6.21412H6.22088H6.2277H6.23457H6.24148H6.24845H6.25547H6.26254H6.26966H6.27683H6.28405H6.29133H6.29866H6.30604H6.31348H6.32097H6.32851H6.33611H6.34376H6.35147H6.35923H6.36705H6.37493H6.38286H6.39085H6.39889H6.407H6.41516H6.42338H6.43166H6.43999H6.44839H6.45684H6.46536H6.47394H6.48257H6.49127H6.50003C6.68941 13 6.86255 13.107 6.94724 13.2764L7.94724 15.2764L9.00003 17.382L10.0528 15.2764L11.0528 13.2764C11.1375 13.107 11.3106 13 11.5 13H11.5088H11.5175H11.5261H11.5347H11.5432H11.5517H11.5601H11.5684H11.5767H11.5849H11.5931H11.6012H11.6092H11.6172H11.6251H11.633H11.6408H11.6486H11.6563H11.6639H11.6715H11.6791H11.6866H11.694H11.7014H11.7087H11.716H11.7232H11.7304H11.7375H11.7446H11.7516H11.7586H11.7655H11.7724H11.7792H11.7859H11.7927H11.7993H11.8059H11.8125H11.819H11.8255H11.832H11.8383H11.8447H11.851H11.8572H11.8634H11.8696H11.8757H11.8818H11.8878H11.8938H11.8997H11.9056H11.9114H11.9172H11.923H11.9287H11.9344H11.9401H11.9457H11.9512H11.9568H11.9622H11.9677H11.9731H11.9784H11.9838H11.9891H11.9943H11.9995H12.0047H12.0099H12.015H12.02H12.0251H12.0301H12.035H12.04H12.0449H12.0497H12.0545H12.0593H12.0641H12.0688H12.0735H12.0782H12.0828H12.0874H12.092H12.0965H12.1011H12.1055H12.11H12.1144H12.1188H12.1232H12.1275H12.1318H12.1361H12.1404H12.1446H12.1488H12.153H12.1571H12.1613H12.1654H12.1694H12.1735H12.1775H12.1815H12.1855H12.1895H12.1934H12.1973H12.2012H12.2051H12.2089H12.2127H12.2165H12.2203H12.2241H12.2279H12.2316H12.2353H12.239H12.2426H12.2463H12.2499H12.2536H12.2572H12.2607H12.2643H12.2679H12.2714H12.2749H12.2784H12.2819H12.2854H12.2889H12.2923H12.2958H12.2992H12.3026H12.306H12.3094H12.3128H12.3161H12.3195H12.3228H12.3262H12.3295H12.3328H12.3361H12.3394H12.3427H12.346H12.3493H12.3525H12.3558H12.359H12.3623H12.3655H12.3688H12.372H12.3752H12.3784H12.3817H12.3849H12.3881H12.3913H12.3945H12.3977H12.4009H12.4041H12.4073H12.4105H12.4136H12.4168H12.42H12.4232H12.4264H12.4296H12.4328H12.436H12.4392H12.4424H12.4456H12.4488H12.452H12.4552H12.4584H12.4616H12.4648H12.468H12.4713H12.4745H12.4777H12.481H12.4842H12.4875H12.4908H12.4941H12.4973H12.5006H12.5039H12.5072H12.5105H12.5139H12.5172H12.5206H12.5239H12.5273H12.5307H12.5341H12.5375H12.5409H12.5443H12.5477H12.5512H12.5547H12.5581H12.5616H12.5651H12.5687H12.5722H12.5758H12.5793H12.5829H12.5865H12.5902H12.5938H12.5974H12.6011H12.6048H12.6085H12.6123H12.616H12.6198H12.6236H12.6274H12.6312H12.6351H12.6389H12.6428H12.6467H12.6507H12.6546H12.6586H12.6626H12.6667H12.6707H12.6748H12.6789H12.683H12.6872H12.6914H12.6956H12.6998H12.7041H12.7083H12.7127H12.717H12.7214H12.7258H12.7302H12.7347H12.7391H12.7437H12.7482H12.7528H12.7574H12.762H12.7667H12.7714H12.7761H12.7809H12.7857H12.7905H12.7954H12.8003H12.8052H12.8102H12.8152H12.8202H12.8253H12.8304H12.8356H12.8407H12.846H12.8512H12.8565H12.8618H12.8672H12.8726H12.8781H12.8836H12.8891H12.8947H12.9003H12.9059H12.9116H12.9173H12.9231H12.9289H12.9348H12.9407H12.9466H12.9526H12.9586H12.9647H12.9708H12.977H12.9832H12.9894H12.9957H13.0021H13.0085H13.0149H13.0214H13.0279H13.0345H13.0411H13.0478H13.0545H13.0613H13.0681H13.075H13.0819H13.0889H13.0959H13.103H13.1101H13.1173H13.1245H13.1318H13.1391H13.1465H13.154H13.1615H13.169H13.1766H13.1843H13.192H13.1998H13.2076H13.2155H13.2234H13.2314H13.2395H13.2476H13.2557H13.264H13.2722H13.2806H13.289H13.2975H13.306H13.3146H13.3232H13.3319H13.3407H13.3495H13.3584H13.3673H13.3764H13.3854H13.3946H13.4038H13.413H13.4224H13.4318H13.4412H13.4508H13.4604H13.47H13.4797H13.4895H13.4994H13.5093H13.5193H13.5294H13.5395H13.5497H13.56H13.5703H13.5807H13.5912H13.6017H13.6124H13.6231H13.6338H13.6446H13.6556H13.6665H13.6776H13.6887H13.6999H13.7112H13.7225H13.7339H13.7454H13.757H13.7686H13.7804H13.7922H13.804H13.816H13.828H13.8401H13.8523H13.8645H13.8769H13.8893H13.9018H13.9144H13.927H13.9398H13.9526H13.9655H13.9785H13.9915H14.0047H14.0179H14.0312H14.0446H14.0581H14.0716H14.0853H14.099H14.1128H14.1267H14.1407H14.1547H14.1689H14.1831H14.1975H14.2119H14.2264H14.241H14.2556H14.2704H14.2852H14.3002H14.3152H14.3303H14.3455H14.3608H14.3762H14.3917H14.4073H14.423H14.4387H14.4546H14.4705H14.4865H14.5027H14.5189H14.5352H14.5516H14.5681H14.5847H14.6014H14.6182H14.6351H14.6521H14.6692H14.6863H14.7036H14.721H14.7385H14.756H14.7737H14.7915H14.8093H14.8273H14.8454H14.8635H14.8818H14.9002H14.9187H14.9372H14.9559H14.9747H14.9936H15.0125H15.0316H15.0508H15.0701H15.0895H15.109H15.1286H15.1484H15.1682H15.1881H15.2081H15.2283H15.2485H15.2689H15.2894H15.3099H15.3306H15.3514H15.3723H15.3933H15.4144H15.4357H15.457H15.4785H15.5C16.0327 13 16.2979 12.9923 16.5018 12.9108C16.6457 12.8532 16.8048 12.7368 17 12.3777V12.3614V12.3413V12.3211V12.3008V12.2805V12.2601V12.2396V12.2191V12.1984V12.1777V12.157V12.1361V12.1152V12.0942V12.0732V12.0521V12.0309V12.0096V11.9883V11.9669V11.9454V11.9239V11.9023V11.8807V11.8589V11.8372V11.8153V11.7934V11.7714V11.7494V11.7273V11.7051V11.6828V11.6606V11.6382V11.6158V11.5933V11.5708V11.5482V11.5255V11.5028V11.48V11.4572V11.4343V11.4114V11.3884V11.3653V11.3422V11.3191V11.2959V11.2726V11.2493V11.2259V11.2024V11.179V11.1554V11.1318V11.1082V11.0845V11.0608V11.037V11.0132V10.9893V10.9653V10.9413V10.9173V10.8932V10.8691V10.8449V10.8207V10.7965V10.7722V10.7478V10.7234V10.699V10.6745V10.65V10.6254V10.6008V10.5762V10.5515V10.5267V10.502V10.4772V10.4523V10.4274V10.4025V10.3775V10.3525V10.3275V10.3024V10.2773V10.2522V10.227V10.2018V10.1765V10.1512V10.1259V10.1006V10.0752V10.0498V10.0243V9.99883V9.97332V9.94778V9.92221V9.89661V9.87098V9.84533V9.81964V9.79393V9.76819V9.74242V9.71663V9.69081V9.66496V9.63909V9.61319V9.58727V9.56133V9.53537V9.50937V9.48336V9.45733V9.43127V9.4052V9.3791V9.35298V9.32684V9.30068V9.27451V9.24831V9.2221V9.19587V9.16962V9.14336V9.11707V9.09078V9.06446V9.03814V9.0118V8.98544V8.95907V8.93268V8.90629V8.87988V8.85346V8.82703V8.80058V8.77413V8.74766V8.72119V8.69471V8.66821V8.64171V8.6152V8.58869V8.56216V8.53563V8.50909V8.48255V8.456V8.42945V8.40289V8.37633V8.34977V8.3232V8.29663V8.27005V8.24347V8.2169V8.19032V8.16374V8.13716V8.11058V8.08401V8.05743V8.03085V8.00428V7.97771V7.95114V7.92458V7.89802V7.87146V7.84491V7.81836V7.79182V7.76528V7.73875V7.71223V7.68572V7.65921V7.63271V7.60622V7.57974V7.55327V7.5268V7.50035V7.47391V7.44748V7.42107V7.39466V7.36827V7.34189V7.31552V7.28917V7.26283V7.2365V7.21019V7.1839V7.15762V7.13136V7.10512V7.07889V7.05268V7.02649V7.00032V6.97417V6.94804V6.92192V6.89583V6.86976V6.84371V6.81768V6.79167V6.76569V6.73973V6.71379V6.68788V6.66199V6.63613V6.61029V6.58447V6.55869V6.53292V6.50719V6.48148V6.45581V6.43016V6.40454V6.37894V6.35338V6.32785V6.30235V6.27688V6.25144V6.22603V6.20065V6.17531V6.15V6.12472V6.09948V6.07427V6.0491V6.02396V5.99886V5.9738V5.94877V5.92378V5.89882V5.87391V5.84903V5.82419V5.79939V5.77463V5.74991V5.72523V5.70059V5.67599V5.65144V5.62693V5.60246V5.57803V5.55365V5.52931V5.50501V5.48076V5.45656V5.4324V5.40829V5.38422V5.36021V5.33623V5.31231V5.28844V5.26461V5.24084V5.21711V5.19343V5.16981V5.14624V5.12271V5.09924V5.07582V5.05246V5.02915V5.00589V4.98268V4.95953V4.93644V4.9134V4.89042V4.86749V4.84462V4.82181V4.79905V4.77636V4.75372V4.73114V4.70862V4.68616V4.66376V4.64142V4.61914V4.59692V4.57477V4.55268V4.53065V4.50868V4.48678V4.46494V4.44317V4.42146V4.39982V4.37824V4.35673V4.33529V4.31392V4.29261V4.27137V4.2502V4.2291V4.20806V4.1871V4.16621V4.14539V4.12464V4.10396V4.08335V4.06282V4.04236V4.02197V4.00166V3.98142V3.96125V3.94116V3.92115V3.90121V3.88135V3.86157V3.84186V3.82223V3.80268V3.78321V3.76381V3.7445V3.72527V3.70611V3.68704V3.66805V3.64914V3.63032V3.61157V3.59291V3.57433V3.55584V3.53743V3.51911V3.50087V3.48271V3.46465V3.44667V3.42877V3.41097V3.39325V3.37562V3.35808V3.34063V3.32326V3.30599V3.28881V3.27172V3.25472V3.23781V3.221V3.20427V3.18764V3.17111V3.15467V3.13832V3.12207V3.10591V3.08985V3.07388V3.05801V3.04224V3.02657V3.01099V2.99552V2.98014V2.96486V2.94968V2.9346V2.91962V2.90474V2.88997V2.87529V2.86072V2.84625V2.83188V2.81762V2.80346V2.78941V2.77546V2.76162V2.74788V2.73425V2.72073V2.70731V2.694V2.6808V2.6677V2.65472V2.64184V2.62908V2.61642V2.60388V2.59145V2.57913V2.56692V2.55482V2.54283V2.53096V2.51921V2.50756V2.49604V2.48462V2.47332V2.46214V2.45108V2.44013V2.4293V2.41858V2.40799V2.39751V2.38715V2.37691V2.36679V2.3568V2.34692V2.33716V2.32753V2.31801V2.30862V2.29936V2.29021V2.28119V2.2723V2.26353V2.25488V2.24636V2.23796V2.2297V2.22155V2.21354V2.20565V2.1979V2.19027V2.18277V2.1754V2.16816V2.16104V2.15407V2.14722V2.1405V2.13392V2.12746V2.12115V2.11496V2.10891V2.10299V2.09721V2.09156V2.08605V2.08067V2.07544V2.07033V2.06537V2.06054V2.05585V2.0513V2.04689V2.04262V2.03849V2.0345V2.03065V2.02694V2.02338V2.01995V2.01667V2.01353V2.01054V2.00769V2.00498V2.00242V2C17 1.79088 16.9919 1.54482 16.8794 1.34986C16.798 1.20872 16.6077 1 16 1H9.00003Z" fill="#FFC107"/>
</svg>
