<svg width="14" height="16" viewBox="0 0 14 16" fill="none" xmlns="http://www.w3.org/2000/svg">
<mask id="mask0_391_12" style="mask-type:alpha" maskUnits="userSpaceOnUse" x="0" y="0" width="14" height="16">
<path fill-rule="evenodd" clip-rule="evenodd" d="M4.8125 1H9.1875C9.36009 1 9.5 1.13991 9.5 1.3125C9.5 1.48509 9.36009 1.625 9.1875 1.625H4.8125C4.63991 1.625 4.5 1.48509 4.5 1.3125C4.5 1.13991 4.63991 1 4.8125 1ZM3.5 1.3125C3.5 0.587626 4.08763 0 4.8125 0H9.1875C9.91237 0 10.5 0.587626 10.5 1.3125C10.5 1.4659 10.4737 1.61316 10.4253 1.75H12.5C13.3284 1.75 14 2.42157 14 3.25V3.75C14 4.54353 13.3838 5.19313 12.6038 5.24646C12.8537 5.61127 12.9853 6.06169 12.9456 6.54012L12.3347 13.9151C12.2488 14.9521 11.3821 15.75 10.3415 15.75H3.65848C2.61792 15.75 1.75121 14.9521 1.66531 13.9151L1.05436 6.54011C1.01473 6.06169 1.14634 5.61127 1.39617 5.24646C0.616177 5.19313 0 4.54352 0 3.75V3.25C0 2.42157 0.671573 1.75 1.5 1.75H3.57468C3.52632 1.61316 3.5 1.4659 3.5 1.3125ZM1.5 2.75H12.5C12.7761 2.75 13 2.97386 13 3.25V3.75C13 4.02614 12.7761 4.25 12.5 4.25H1.5C1.22386 4.25 1 4.02614 1 3.75V3.25C1 2.97386 1.22386 2.75 1.5 2.75ZM10.9525 5.375H3.04753C2.46268 5.375 2.00266 5.87471 2.05094 6.45756L2.66189 13.8326C2.70484 14.3511 3.1382 14.75 3.65848 14.75H10.3415C10.8618 14.75 11.2952 14.3511 11.3381 13.8326L11.9491 6.45756C11.9973 5.87471 11.5373 5.375 10.9525 5.375ZM4.87423 6.09726C4.85891 5.82155 4.62298 5.61045 4.34726 5.62577C4.07155 5.64109 3.86045 5.87702 3.87577 6.15274L4.31327 14.0277C4.32859 14.3035 4.56452 14.5145 4.84024 14.4992C5.11595 14.4839 5.32705 14.248 5.31173 13.9723L4.87423 6.09726ZM9.65273 5.62577C9.92845 5.64109 10.1395 5.87702 10.1242 6.15274L9.68673 14.0277C9.67141 14.3035 9.43548 14.5145 9.15977 14.4992C8.88405 14.4839 8.67295 14.248 8.68827 13.9723L9.12577 6.09726C9.14109 5.82155 9.37702 5.61045 9.65273 5.62577ZM7.5 6.125C7.5 5.84886 7.27614 5.625 7 5.625C6.72386 5.625 6.5 5.84886 6.5 6.125V14C6.5 14.2761 6.72386 14.5 7 14.5C7.27614 14.5 7.5 14.2761 7.5 14V6.125Z" fill="white"/>
</mask>
<g mask="url(#mask0_391_12)">
<rect x="-13.125" y="-11.375" width="35.875" height="40.25" fill="#FFC107"/>
</g>
</svg>
