<svg width="75" height="55" viewBox="0 0 75 55" fill="none" xmlns="http://www.w3.org/2000/svg">
<path d="M37.2778 1.56718C34.5327 2.43647 32.4425 6.43981 28.5708 6.02351C22.1947 5.33792 18.9039 1.56718 11.2253 7.05189C6.10457 10.7096 5.39778 17.4043 5.32922 17.7471C5.26067 18.0899 4.50655 18.227 4.50655 18.6384C2.31263 20.3523 -4.95689 34.4069 11.431 47.4331C14.1048 49.5585 25.0743 55.5231 40.2944 53.4663C43.5739 53.0231 47.2874 52.7122 50.5097 50.1069C53.0875 48.0227 55.848 45.3535 56.906 44.2794C57.2783 44.7817 57.6044 45.1518 57.8455 45.3078C59.011 46.062 59.2852 46.1305 60.9992 47.4331C62.7131 48.7358 64.7699 49.3528 68.4035 47.4331C71.9942 45.5362 72.3714 44.3087 72.6445 43.4199L72.6542 43.3882C73.3946 40.9823 73.6826 39.6174 73.7511 36.3951C73.8197 33.1729 73.1341 30.4305 70.5974 30.4305C68.8824 30.4305 68.5933 30.1039 67.9709 29.3336L67.9426 29.2985C67.6233 28.9031 67.2124 28.3941 66.4839 27.7567C64.29 25.837 65.4556 26.934 62.6446 25.0143C60.3959 23.4786 60.1079 26.934 58.9424 20.9008C58.9424 20.1467 60.4507 20.3523 60.9306 17.8842C62.6446 14.7991 61.8219 14.5934 61.2049 13.1536C60.5879 11.7139 56.4743 3.34972 50.304 5.8864C48.7188 6.53811 47.9944 4.44693 46.4647 3.07547C44.4765 1.29295 41.2542 0.307977 37.2778 1.56718Z" fill="#FFC107"/>
<path d="M66.4839 33.0357C65.7983 32.7387 64.6258 31.3814 63.2617 29.6764C62.4389 28.648 57.914 28.2957 56.6114 28.648C48.3843 30.8729 54.8974 33.5842 57.8455 32.1445C63.2617 35.2296 61.959 37.972 61.2049 38.6576C60.4507 39.3432 59.4909 38.1777 57.8455 37.2864C56.2001 36.3951 55.5039 33.8232 53.732 33.0357C52.4979 32.4873 51.7437 32.1445 51.1267 33.0357C50.5097 33.927 52.018 35.7781 52.7721 37.2864C53.3703 38.4827 55.4781 42.3532 56.906 44.2794M56.906 44.2794C57.2783 44.7817 57.6044 45.1518 57.8455 45.3078C59.011 46.062 59.2852 46.1305 60.9992 47.4331C62.7131 48.7358 64.7699 49.3528 68.4035 47.4331C72.0372 45.5135 72.38 44.2794 72.6542 43.3882C73.3946 40.9823 73.6826 39.6174 73.7511 36.3951C73.8197 33.1729 73.1341 30.4305 70.5974 30.4305C68.8824 30.4305 68.5933 30.1039 67.9709 29.3336M56.906 44.2794C55.848 45.3535 53.0875 48.0227 50.5097 50.1069C47.2874 52.7122 43.5739 53.0231 40.2944 53.4663C25.0743 55.5231 14.1048 49.5585 11.431 47.4331C-4.95689 34.4069 2.31263 20.3523 4.50655 18.6384C4.50655 18.227 5.26067 18.0899 5.32922 17.7471C5.39778 17.4043 6.10457 10.7096 11.2253 7.05189C18.9039 1.56718 22.1947 5.33792 28.5708 6.02351C32.4425 6.43981 34.5327 2.43647 37.2778 1.56718C41.2542 0.307977 44.4765 1.29295 46.4647 3.07547C47.9944 4.44693 48.7188 6.53811 50.304 5.8864C56.4743 3.34972 60.5879 11.7139 61.2049 13.1536C61.8219 14.5934 62.6446 14.7991 60.9306 17.8842C60.4507 20.3523 58.9424 20.1467 58.9424 20.9008C60.1079 26.934 60.3959 23.4786 62.6446 25.0143C65.4556 26.934 64.29 25.837 66.4839 27.7567C67.2341 28.4131 67.6475 28.9333 67.9709 29.3336M9.57997 15.4846C12.2538 11.5768 12.1166 11.5082 14.9961 9.0401C17.8756 6.57198 20.2751 7.25757 24.8686 7.46325M67.9709 29.3336C68.3665 29.9734 69.1191 31.2876 69.1576 31.3903C69.3633 31.9388 69.4319 32.1673 69.569 32.4873" stroke="black" stroke-linecap="round" stroke-linejoin="round"/>
<path d="M41.5 13.5L39.5 16.5V20L42.5 22.5H50L55.5 20L56.5 16.5L54.5 11L48 12L41.5 13.5Z" fill="white"/>
<path d="M36.1834 5.26094C35.9515 5.41095 35.8852 5.72051 36.0352 5.95235C36.1852 6.18419 36.4948 6.25052 36.7266 6.10051L36.1834 5.26094ZM40.7742 4.03531V3.53531V4.03531ZM46.1218 4.85802L46.2113 4.36609L46.1218 4.85802ZM36.7266 6.10051C37.9313 5.32103 38.741 4.53531 40.7742 4.53531V3.53531C38.3856 3.53531 37.3097 4.53211 36.1834 5.26094L36.7266 6.10051ZM40.7742 4.53531C43.808 4.53531 43.4834 4.88651 46.0324 5.34996L46.2113 4.36609C43.9242 3.95026 43.9108 3.53531 40.7742 3.53531V4.53531ZM46.0324 5.34996C46.3967 5.41619 46.8482 5.50329 47.2473 5.52843C47.4484 5.5411 47.661 5.5401 47.8592 5.50433C48.0535 5.46927 48.2831 5.39201 48.4636 5.21157L47.7565 4.50447C47.7769 4.484 47.7723 4.50387 47.6817 4.52023C47.5949 4.53587 47.4719 4.54059 47.3102 4.53041C46.9837 4.50984 46.6011 4.43697 46.2113 4.36609L46.0324 5.34996Z" fill="black"/>
<path d="M12.9393 19.8724C15.8873 16.1017 15.8187 16.1578 17.8755 14.6619C21.6463 11.9196 24.9403 11.7114 25.6227 11.6454C27.748 11.4397 28.365 11.4397 30.9703 11.4397C33.5755 11.4397 33.8498 11.3026 36.3179 11.851C38.3257 12.2972 38.6535 11.3006 41.6655 9.99994C44.6821 8.69731 47.9772 8.52556 49.207 8.42308C51.6751 8.21741 53.6863 8.12672 55.583 8.42308C57.7769 8.76587 59.1709 9.3829 59.4223 9.86282" stroke="black"/>
<path d="M40.6694 17.5736C41.2179 19.6304 40.8751 19.9731 39.9839 21.6186C39.2526 21.6186 38.3355 22.6852 35.5961 23.9496C32.9223 25.1836 32.7852 24.9779 30.5913 25.595C27.9218 26.3458 28.6716 26.3491 25.3122 26.3491C21.9528 26.3491 21.2677 25.1997 19.9646 24.498C18.1821 23.5382 14.2057 25.6635 14 24.0181C14 21.8242 17.4279 23.1269 20.5131 20.3159C22.5699 18.6705 22.707 17.9849 23.5983 17.3679C24.4438 16.7825 25.3808 15.7225 28.8773 15.1055C32.3738 14.4884 32.9831 14.2142 35.7332 14.2142C36.8987 14.2142 38.9978 14.5056 39.6411 15.7225C40.0524 16.2024 40.4644 16.8048 40.6694 17.5736Z" fill="white"/>
<path d="M19.4881 27.6518C19.223 27.5742 18.9453 27.7262 18.8677 27.9912C18.7902 28.2562 18.9421 28.534 19.2072 28.6115L19.4881 27.6518ZM37.0358 25.595L36.7353 25.1954L37.0358 25.595ZM39.9839 21.6186L40.4235 21.8567V21.8567L39.9839 21.6186ZM40.6694 17.5736L41.1526 17.4447V17.4447L40.6694 17.5736ZM28.8773 15.1055L28.7904 14.6131L28.8773 15.1055ZM23.5983 17.3679L23.8829 17.779H23.8829L23.5983 17.3679ZM20.5131 20.3159L20.2008 19.9255L20.1882 19.9355L20.1764 19.9463L20.5131 20.3159ZM14 24.0181H13.5V24.0492L13.5039 24.0801L14 24.0181ZM19.9646 24.498L19.7276 24.9383L19.9646 24.498ZM30.5913 25.595L30.4559 25.1136L30.5913 25.595ZM35.5961 23.9496L35.3866 23.4956L35.5961 23.9496ZM39.6411 15.7225L39.199 15.9562L39.2251 16.0055L39.2614 16.0479L39.6411 15.7225ZM44.0288 12.9116L44.1434 13.3983L44.1434 13.3983L44.0288 12.9116ZM44.2189 12.8669L44.3335 13.3536L44.3335 13.3536L44.2189 12.8669ZM54.3812 11.0605L54.3383 10.5623L54.3812 11.0605ZM19.2072 28.6115C22.0209 29.435 29.3766 31.982 37.3364 25.9945L36.7353 25.1954C29.2007 30.863 22.2962 28.4737 19.4881 27.6518L19.2072 28.6115ZM37.3364 25.9945C38.763 24.9214 39.3545 24.2829 39.6806 23.6562C39.8384 23.3529 39.9278 23.0611 40.0183 22.7965C40.1107 22.5265 40.2191 22.2341 40.4235 21.8567L39.5442 21.3804C39.303 21.8257 39.1739 22.1756 39.0722 22.4728C38.9687 22.7752 38.9075 22.9755 38.7935 23.1946C38.5761 23.6124 38.1392 24.1394 36.7353 25.1954L37.3364 25.9945ZM40.4235 21.8567C40.8446 21.0794 41.205 20.4976 41.3534 19.8644C41.5106 19.1937 41.4329 18.4962 41.1526 17.4447L40.1863 17.7024C40.4544 18.7078 40.4796 19.21 40.3797 19.6362C40.271 20.1 40.0144 20.5123 39.5442 21.3804L40.4235 21.8567ZM35.7332 13.7142C32.9263 13.7142 32.254 14.0018 28.7904 14.6131L28.9642 15.5978C32.4937 14.975 33.04 14.7142 35.7332 14.7142V13.7142ZM28.7904 14.6131C27.0002 14.929 25.8398 15.363 25.008 15.8076C24.2008 16.239 23.6728 16.7082 23.3137 16.9568L23.8829 17.779C24.3693 17.4422 24.7325 17.0887 25.4794 16.6895C26.2016 16.3035 27.2579 15.899 28.9642 15.5978L28.7904 14.6131ZM23.3137 16.9568C22.8059 17.3083 22.5017 17.6926 22.1187 18.1245C21.731 18.5617 21.2029 19.1238 20.2008 19.9255L20.8255 20.7064C21.8801 19.8627 22.449 19.2592 22.8668 18.788C23.2894 18.3115 23.4993 18.0445 23.8829 17.779L23.3137 16.9568ZM20.1764 19.9463C18.7372 21.2575 17.2242 21.6126 15.9823 21.9124C15.3869 22.0561 14.7721 22.2029 14.3194 22.485C14.0788 22.635 13.8655 22.8326 13.7161 23.1019C13.567 23.3706 13.5 23.6776 13.5 24.0181H14.5C14.5 23.8102 14.5401 23.6779 14.5906 23.587C14.6407 23.4966 14.7193 23.4141 14.8483 23.3337C15.1347 23.1553 15.5697 23.0407 16.2169 22.8845C17.4603 22.5843 19.2038 22.1852 20.8499 20.6855L20.1764 19.9463ZM13.5039 24.0801C13.5442 24.4025 13.6877 24.6765 13.9378 24.8684C14.1711 25.0475 14.4524 25.1207 14.7135 25.1493C15.2239 25.2053 15.8664 25.1088 16.4726 25.0085C17.1099 24.903 17.7464 24.7851 18.3403 24.7486C18.9414 24.7116 19.408 24.7662 19.7276 24.9383L20.2017 24.0578C19.63 23.75 18.9311 23.7103 18.2789 23.7505C17.6194 23.791 16.9147 23.9217 16.3093 24.0219C15.6729 24.1272 15.1713 24.1935 14.8226 24.1553C14.6542 24.1368 14.5772 24.0986 14.5467 24.0751C14.533 24.0646 14.5073 24.0451 14.4961 23.9561L13.5039 24.0801ZM19.7276 24.9383C20.0238 25.0978 20.2853 25.2827 20.5941 25.4952C20.8967 25.7034 21.2339 25.9301 21.6447 26.1344C22.4801 26.5499 23.5701 26.8491 25.3122 26.8491V25.8491C23.695 25.8491 22.7627 25.5736 22.09 25.239C21.7466 25.0682 21.4583 24.876 21.161 24.6714C20.8698 24.471 20.557 24.2491 20.2017 24.0578L19.7276 24.9383ZM25.3122 26.8491C26.9698 26.8491 27.6751 26.8501 28.293 26.7467C28.6077 26.6941 28.8936 26.6159 29.2546 26.509C29.6188 26.4011 30.0636 26.2628 30.7266 26.0763L30.4559 25.1136C29.7842 25.3025 29.3217 25.4462 28.9707 25.5501C28.6166 25.655 28.3794 25.7184 28.128 25.7604C27.6135 25.8465 27.0141 25.8491 25.3122 25.8491V26.8491ZM30.7266 26.0763C32.8682 25.474 33.0838 25.6597 35.8056 24.4035L35.3866 23.4956C32.7607 24.7075 32.7022 24.4819 30.4559 25.1136L30.7266 26.0763ZM35.8056 24.4035C37.207 23.7568 38.1441 23.1592 38.8127 22.731C39.1522 22.5135 39.3984 22.3558 39.6046 22.2491C39.8114 22.1422 39.9204 22.1186 39.9839 22.1186V21.1186C39.6817 21.1186 39.4018 21.2282 39.1453 21.3608C38.8883 21.4937 38.5969 21.6816 38.2733 21.8889C37.6157 22.3101 36.7246 22.878 35.3866 23.4956L35.8056 24.4035ZM41.1526 17.4447C40.9209 16.5761 40.4582 15.9075 40.0207 15.3971L39.2614 16.0479C39.6467 16.4973 40.008 17.0335 40.1863 17.7024L41.1526 17.4447ZM40.0831 15.4888C39.6662 14.7002 38.8182 14.2703 38.0265 14.033C37.2163 13.7903 36.3492 13.7142 35.7332 13.7142V14.7142C36.2827 14.7142 37.0479 14.7838 37.7395 14.991C38.4494 15.2037 38.9726 15.5279 39.199 15.9562L40.0831 15.4888ZM40.1287 15.612C40.1503 15.7075 40.1223 15.7533 40.1392 15.7033C40.1499 15.6715 40.1757 15.6127 40.2276 15.5303C40.3304 15.3669 40.5164 15.141 40.8175 14.889C41.4171 14.3872 42.4579 13.7949 44.1434 13.3983L43.9143 12.4249C42.1033 12.851 40.9139 13.5042 40.1757 14.1222C39.8078 14.4301 39.548 14.7327 39.3812 14.9978C39.2982 15.1296 39.2333 15.2601 39.1916 15.3839C39.1559 15.4897 39.1137 15.6575 39.1534 15.833L40.1287 15.612ZM44.1434 13.3983L44.3335 13.3536L44.1044 12.3802L43.9143 12.4249L44.1434 13.3983ZM44.3335 13.3536C48.9664 12.2634 50.5388 11.8936 54.4242 11.5586L54.3383 10.5623C50.3771 10.9038 48.7464 11.2878 44.1044 12.3802L44.3335 13.3536ZM54.4242 11.5586C57.3463 11.3067 59.1696 11.9312 60.1951 12.1021L60.3595 11.1157C59.4654 10.9667 57.4271 10.296 54.3383 10.5623L54.4242 11.5586Z" fill="black"/>
<path d="M39.9515 21.4493C42.0083 22.3406 42.6717 23.062 44.1336 22.9576C47.9729 22.6834 49.824 22.359 51.2638 21.8606C53.0463 21.2436 53.869 20.9694 56.4742 19.8039C58.5584 18.8715 60.5192 18.3413 60.862 18.0899" stroke="black" stroke-linecap="round"/>
<path d="M32.2729 8.01173C33.0956 8.42309 34.124 8.97156 34.8781 9.72571C35.6323 10.4799 36.295 11.4397 36.7292 11.9196" stroke="black" stroke-linecap="round"/>
<path d="M50.3039 27.0026C46.6703 25.5628 38.1004 30.4991 42.6253 40.6458C43.9892 43.7044 44.9563 43.6624 46.9445 43.1825C51.5907 42.061 51.4694 42.7711 53.4576 38.7947C52.4978 36.3951 51.8808 35.7095 51.1952 35.024C50.6034 34.4322 46.3961 35.8467 50.9895 31.9388C52.4292 29.8135 51.8808 28.0309 50.3039 27.0026Z" fill="#FFC107" stroke="black"/>
<path d="M38.8453 25.7038C38.696 25.9361 38.7633 26.2454 38.9956 26.3948C39.2278 26.5441 39.5372 26.4768 39.6865 26.2446L38.8453 25.7038ZM40.4314 23.8488L39.9842 23.6252L40.4314 23.8488ZM39.6865 26.2446C40.3215 25.2568 40.5407 24.7484 40.8786 24.0725L39.9842 23.6252C39.6366 24.3205 39.4444 24.7719 38.8453 25.7038L39.6865 26.2446ZM40.8786 24.0725C41.1786 23.4726 41.4405 22.5598 41.5335 22.1876L40.5634 21.945C40.4736 22.3041 40.2328 23.1281 39.9842 23.6252L40.8786 24.0725Z" fill="black"/>
<path d="M58.9424 20.8323C57.8454 21.5179 57.7083 21.3122 56.6799 21.9292C55.8572 22.4228 55.4687 22.5462 55.3773 22.5462M50.5782 27.0711C51.4009 26.934 53.252 26.4541 54.0061 25.9742C54.7603 25.4943 56.5428 24.2602 56.8856 23.9174C57.1598 23.6432 58.371 22.2035 58.9424 21.5179M51.8122 30.4305C52.6349 29.3336 53.5262 28.4423 54.2118 27.7567C54.8974 27.0711 55.9258 26.6598 57.0913 25.9742C58.0237 25.4257 59.3994 24.7401 59.9707 24.4659" stroke="black" stroke-linecap="round"/>
<path d="M59.9022 33.5157C59.4223 33.927 59.3537 35.1611 59.4223 36.0524C59.4771 36.7654 59.5137 37.7206 59.4908 38.3834" stroke="black"/>
<path d="M5.19212 18.0899C4.23228 18.6384 4.57503 19.2554 4.84931 20.3524C5.0893 21.3122 5.10068 23.0947 5.32921 24.4659" stroke="black" stroke-linecap="round"/>
<path d="M29.7262 18.2083C29.7262 16.3623 30.6175 14.7804 31.166 14.5061C32.0572 14.369 33.9906 14.0399 34.5939 13.8205C35.3481 13.5463 38.0219 14.0262 39.3245 14.986C40.6271 15.9459 40.9699 17.8505 40.9699 18.4825C40.9699 19.1681 40.5585 20.8135 39.873 21.2249C39.3245 21.554 37.8162 22.5961 37.1306 23.076C36.5364 23.3731 35.115 23.885 34.1826 23.5559C33.0171 23.1446 33.2508 23.3502 31.7144 22.1847C29.7262 20.6764 29.7262 19.031 29.7262 18.2083Z" fill="black" stroke="black" stroke-linecap="round"/>
<path d="M51.9393 14.2319C51.9393 12.3859 53.5162 11.0096 54.0646 10.7354C54.9559 10.5983 54.9011 10.4828 55.5044 10.2634C56.2585 9.9892 58.9323 10.4691 60.235 11.4289C61.5376 12.3888 61.8804 14.2934 61.8804 14.9254C61.8804 15.611 61.469 17.2564 60.7834 17.6678C60.235 17.9969 58.7267 19.039 58.0411 19.5189C57.4469 19.816 56.4368 19.848 55.5044 19.5189C54.3389 19.1075 54.7783 19.3738 53.2419 18.2083C51.2537 16.7 51.9393 15.0546 51.9393 14.2319Z" fill="black" stroke="black" stroke-linecap="round"/>
<ellipse cx="33.6341" cy="17.1799" rx="1.37118" ry="1.23406" fill="#D9D9D9"/>
<ellipse cx="56.7385" cy="13.2035" rx="1.85109" ry="1.23406" fill="#D9D9D9"/>
<ellipse cx="37.5419" cy="19.3738" rx="0.754149" ry="0.68559" fill="#D9D9D9"/>
<ellipse cx="54.5446" cy="16.6315" rx="0.754149" ry="0.68559" fill="#D9D9D9"/>
<ellipse cx="34.0454" cy="21.9105" rx="0.548472" ry="0.479913" fill="#D9D9D9"/>
<circle cx="57.1498" cy="17.797" r="0.479913" fill="#D9D9D9"/>
</svg>
