<svg width="14" height="19" viewBox="0 0 14 19" fill="none" xmlns="http://www.w3.org/2000/svg">
<path fill-rule="evenodd" clip-rule="evenodd" d="M1 0C0.447715 0 0 0.447715 0 1V17.5C0 17.8623 0.195942 18.1962 0.512197 18.373C0.828453 18.5497 1.21556 18.5415 1.5241 18.3517L7 14.9819L12.4759 18.3517C12.7844 18.5415 13.1715 18.5497 13.4878 18.373C13.8041 18.1962 14 17.8623 14 17.5V1C14 0.447715 13.5523 0 13 0H7H1ZM7 2H2V15.7104L6.9759 12.6483L7 12.6875L7.0241 12.6483L12 15.7104V2H7Z" fill="#FFC107"/>
</svg>
